<svg data-v-0dd9719b="" version="1.0" xmlns="http://www.w3.org/2000/svg" xmlns:xlink="http://www.w3.org/1999/xlink" width="100%" height="100%" viewBox="0 0 340.000000 250.000000" preserveAspectRatio="xMidYMid meet" color-interpolation-filters="sRGB" style="margin: auto;"> <rect data-v-0dd9719b="" x="0" y="0" width="100%" height="100%" fill="#000000" fill-opacity="0" class="background"></rect> <!----> <g data-v-0dd9719b="" fill="#ffffff" class="iconlinesvg-g iconlinesvg" transform="translate(28.956100463867188,26.734161377082387)"><g class="tp-name"><g transform="translate(0, 0)"><g><g class="imagesvg"><g><rect fill="#ffffff" fill-opacity="0" stroke-width="2" x="0" y="0" width="282.08780487804916" height="196.5316720740521" class="image-rect"></rect> <svg x="0" y="0" width="282.08780487804916" height="196.5316720740521" filtersec="colorsb652961266" class="image-svg-svg primary" style="overflow: visible;"><svg xmlns="http://www.w3.org/2000/svg" viewBox="0 0.0005496665835380554 127.02583312988281 88.49945068359375"><title>资源 224</title><path d="M35.81 18c3.07-5.91 5.76-11.25 8.67-16.47a3.81 3.81 0 0 1 2.9-1.42c22.33-.08 44.66-.2 67 0 9.87.09 15.68 10.73 11 19.94-6.69 13.4-13.51 26.75-20.59 39.95C101 67.14 94.6 70.92 86.42 71q-24.73.17-49.49 0a17.93 17.93 0 0 0-9.63 2.67c-8 4.65-16.06 9.14-24.11 13.66A26.51 26.51 0 0 1 0 88.5a19.73 19.73 0 0 1 .77-2.4c5.28-10.3 10.62-20.57 15.85-30.89A3.52 3.52 0 0 1 20.29 53c21 .07 42 .05 63 .05 5 0 8.82-1.86 11.16-6.52 3.39-6.77 7-13.44 10.39-20.2 2.39-4.75.18-8.29-5.22-8.3C79.44 18 59.28 18 39.12 18z" fill="#9EFF00"></path><path d="M23.17 43c2.58-5 4.85-9.6 7.37-14.08.36-.64 1.86-.88 2.84-.89 16.66-.05 33.33 0 50 0 1.92 0 3.84-.08 5.75 0 2.3.14 2.84 1.06 1.84 3.09q-2.14 4.38-4.46 8.66c-1.4 2.59-3.74 3.26-6.54 3.25H29.73z" fill="#FDFFFA"></path></svg></svg> <!----></g></g></g></g></g> <!----></g><defs v-gra="od"></defs></svg>