<svg width="26" height="27" viewBox="0 0 26 27" fill="none" xmlns="http://www.w3.org/2000/svg">
<path d="M12.729 5.67117C12.729 5.22723 12.4964 4.82595 12.2275 4.47275C11.9514 4.11013 11.7915 3.68 11.7915 3.21875C11.7915 1.92433 13.0507 0.875 14.604 0.875C16.1573 0.875 17.4165 1.92433 17.4165 3.21875C17.4165 3.68 17.2566 4.11013 16.9805 4.47275C16.7116 4.82595 16.479 5.22723 16.479 5.67117C16.479 6.08661 16.8261 6.41825 17.2408 6.3935C19.6291 6.25099 21.9788 5.9666 24.2817 5.54873C24.5352 5.50274 24.7964 5.56306 25.004 5.71551C25.2116 5.86796 25.3473 6.09913 25.3793 6.35471C25.6594 8.59155 25.8181 10.8658 25.8488 13.1706C25.855 13.6285 25.4832 13.9999 25.0252 14C24.5812 14 24.18 13.7674 23.8267 13.4985C23.4641 13.2224 23.034 13.0625 22.5728 13.0625C21.2783 13.0625 20.229 14.3217 20.229 15.875C20.229 17.4283 21.2783 18.6875 22.5728 18.6875C23.034 18.6875 23.4641 18.5276 23.8267 18.2515C24.18 17.9826 24.5812 17.75 25.0252 17.75C25.4132 17.75 25.7213 18.0771 25.6933 18.4641C25.545 20.5123 25.2954 22.5327 24.9494 24.5202C24.8816 24.9099 24.5764 25.2152 24.1866 25.283C21.9127 25.6787 19.5958 25.9484 17.2434 26.0846C16.8271 26.1087 16.479 25.7756 16.479 25.3587C16.479 24.9147 16.7116 24.5135 16.9805 24.1602C17.2566 23.7976 17.4165 23.3675 17.4165 22.9062C17.4165 21.6118 16.1573 20.5625 14.604 20.5625C13.0507 20.5625 11.7915 21.6118 11.7915 22.9062C11.7915 23.3675 11.9514 23.7976 12.2275 24.1602C12.4964 24.5135 12.729 24.9147 12.729 25.3587C12.729 25.8106 12.359 26.1757 11.9072 26.1628C9.92029 26.1065 7.95698 25.955 6.02167 25.7127C5.76608 25.6807 5.53492 25.5449 5.38247 25.3373C5.23001 25.1297 5.1697 24.8685 5.21569 24.6151C5.58179 22.5976 5.84544 20.5442 6.001 18.4604C6.02973 18.0756 5.72354 17.75 5.33767 17.75C4.89373 17.75 4.49246 17.9826 4.13925 18.2515C3.77663 18.5276 3.3465 18.6875 2.88525 18.6875C1.59084 18.6875 0.541504 17.4283 0.541504 15.875C0.541504 14.3217 1.59084 13.0625 2.88525 13.0625C3.3465 13.0625 3.77663 13.2224 4.13925 13.4985C4.49246 13.7674 4.89373 14 5.33768 14C5.79563 14 6.16747 13.6287 6.16117 13.1708C6.13318 11.1356 6.00228 9.12533 5.77349 7.14535C5.74063 6.86101 5.83948 6.57723 6.04188 6.37483C6.24428 6.17243 6.52806 6.07358 6.81241 6.10644C8.49028 6.30032 10.1898 6.4239 11.9078 6.47414C12.3592 6.48734 12.729 6.12271 12.729 5.67117Z" fill="#9EFF00"/>
</svg>
