<svg width="27" height="20" viewBox="0 0 27 20" fill="none" xmlns="http://www.w3.org/2000/svg">
<path d="M9.79725 12.0473C9.79725 11.9415 9.85134 11.8463 9.93781 11.7405L14.4041 6.24917C14.7393 5.82595 15.3017 6.11163 15.1071 6.63008L13.6363 10.492H16.3939C16.5994 10.492 16.7833 10.6507 16.7833 10.8412C16.7833 10.947 16.7292 11.0634 16.6318 11.1585L12.1764 16.6392C11.8411 17.0625 11.268 16.7768 11.4627 16.269L12.9442 12.3965H10.1757C9.97029 12.3965 9.79725 12.2484 9.79725 12.0473ZM3.97917 19.7288H22.6878C24.9589 19.7288 26.0835 18.639 26.0835 16.4594V6.22801C26.0835 4.04842 24.9589 2.95862 22.6878 2.95862H21.1954V1.54083C21.1954 0.736705 20.7196 0.25 19.887 0.25H16.6967C15.8748 0.25 15.399 0.736705 15.399 1.54083V2.95862H11.2788V1.54083C11.2788 0.736705 10.8029 0.25 9.97029 0.25H6.78006C5.94737 0.25 5.48235 0.736705 5.48235 1.54083V2.95862H3.97917C1.71899 2.95862 0.583496 4.04842 0.583496 6.22801V16.4594C0.583496 18.639 1.71899 19.7288 3.97917 19.7288Z" fill="#9EFF00"/>
</svg>
