<svg width="32" height="36" viewBox="0 0 32 36" fill="none" xmlns="http://www.w3.org/2000/svg">
<path d="M0 19.6977V22.0669C0 25.1754 1.56938 26.7449 4.73833 26.7449H8.55614V24.3154H4.7685C3.25948 24.3154 2.42952 23.5005 2.42952 21.9311V19.6977H0ZM2.42952 17.6304V10.7794H0V17.6304H2.42952ZM2.42952 8.72716V6.93143C2.42952 5.36205 3.25948 4.54718 4.7685 4.54718H6.95658V2.11766H4.73833C1.56938 2.11766 0 3.68704 0 6.79562V8.72716H2.42952ZM15.8598 2.11766H9.00884V4.54718H15.8598V2.11766ZM17.9121 4.54718H19.8437C21.3375 4.54718 22.1826 5.36205 22.1826 6.93143V10.2362H24.6121V6.79562C24.6121 3.68704 23.0276 2.11766 19.8889 2.11766H17.9121V4.54718ZM31.9309 25.4622V13.7824C31.9309 10.6738 30.3464 9.10442 27.2076 9.10442H12.0571C8.88812 9.10442 7.31874 10.6587 7.31874 13.7824V29.0537C7.31874 32.1622 8.88812 33.7317 12.0571 33.7317H19.6625V31.3022H12.0873C10.5933 31.3022 9.74827 30.4872 9.74827 28.9179V13.9183C9.74827 12.3488 10.5933 11.5339 12.0873 11.5339H27.1624C28.6563 11.5339 29.5014 12.3488 29.5014 13.9183V23.0176L31.9309 25.4622ZM21.0206 31.0003C21.0056 31.5888 21.6998 31.7699 22.0769 31.4078L24.3858 29.0989L26.9662 35.467C27.087 35.7537 27.3887 35.8896 27.6604 35.7839L29.1693 35.1803C29.4259 35.0595 29.5466 34.7426 29.3957 34.456L26.6946 28.1785L29.954 28.0577C30.5124 28.0276 30.7991 27.4692 30.3917 27.0467L22.1373 18.5659C21.76 18.1736 21.1715 18.4 21.1565 18.9583L21.0206 31.0003Z" fill="#9EFF00"/>
</svg>
